<svg width="24" height="24" viewBox="0 0 24 24" fill="none" xmlns="http://www.w3.org/2000/svg">
<path d="M6 13.0015V11.0015H14L10.5 7.50146L11.92 6.08146L17.84 12.0015L11.92 17.9215L10.5 16.5015L14 13.0015H6ZM22 12.0015C22 14.6536 20.9464 17.1972 19.0711 19.0725C17.1957 20.9479 14.6522 22.0015 12 22.0015C10.6868 22.0015 9.38642 21.7428 8.17317 21.2403C6.95991 20.7377 5.85752 20.0011 4.92893 19.0725C3.05357 17.1972 2 14.6536 2 12.0015C2 9.3493 3.05357 6.80576 4.92893 4.9304C6.8043 3.05503 9.34784 2.00146 12 2.00146C13.3132 2.00146 14.6136 2.26012 15.8268 2.76267C17.0401 3.26522 18.1425 4.00181 19.0711 4.9304C19.9997 5.85898 20.7362 6.96137 21.2388 8.17463C21.7413 9.38789 22 10.6882 22 12.0015ZM20 12.0015C20 9.87973 19.1571 7.8449 17.6569 6.34461C16.1566 4.84432 14.1217 4.00146 12 4.00146C9.87827 4.00146 7.84344 4.84432 6.34315 6.34461C4.84285 7.8449 4 9.87973 4 12.0015C4 14.1232 4.84285 16.158 6.34315 17.6583C7.84344 19.1586 9.87827 20.0015 12 20.0015C14.1217 20.0015 16.1566 19.1586 17.6569 17.6583C19.1571 16.158 20 14.1232 20 12.0015Z" fill="#475569"/>
</svg>
