<svg width="78" height="78" viewBox="0 0 78 78" fill="none" xmlns="http://www.w3.org/2000/svg">
<path d="M58.5002 47.1202C62.0752 47.1202 65.3252 48.4202 67.6002 51.0202L71.5002 47.1202V60.1202H58.5002L64.3502 54.2702C62.7252 52.9702 60.7752 51.9952 58.5002 51.9952C53.9502 51.9952 50.3752 55.5702 50.3752 60.1202C50.3752 64.6702 53.9502 68.2452 58.5002 68.2452C61.1002 68.2452 63.3752 66.9452 65.0002 64.9952H70.5252C68.5752 69.8702 64.0252 73.1202 58.5002 73.1202C51.3502 73.1202 45.5002 67.2702 45.5002 60.1202C45.5002 52.9702 51.3502 47.1202 58.5002 47.1202ZM38.0252 64.9952H36.7252L35.4252 56.5452C31.5252 55.8952 28.2752 53.6202 25.6752 50.6952L17.8752 53.9452L15.2752 49.7202L22.1002 44.5202C20.8002 40.6202 20.8002 36.7202 22.1002 32.8202L15.2752 28.2702L17.8752 24.0452L25.6752 27.2952C28.2752 24.3702 31.5252 22.4202 35.4252 21.4452L36.4002 12.9952H41.2752L42.5752 21.4452C46.4752 22.0952 50.0502 24.3702 52.3252 27.2952L60.1252 24.0452L62.7252 28.2702L55.9002 33.1452C56.5502 35.0952 56.8752 37.0452 56.8752 38.9952H58.5002C60.1252 38.9952 61.7502 39.3202 63.3752 39.6452V38.9952L63.0502 35.7452L69.8752 30.5452C70.5252 29.8952 70.5252 29.2452 70.2002 28.5952L63.7002 17.2202C63.3752 16.2452 62.7252 16.2452 61.7502 16.2452L53.6252 19.4952C52.0002 18.1952 50.0502 17.2202 48.1002 16.2452L46.8002 7.47024C47.1252 7.14524 46.1502 6.49524 45.5002 6.49524H32.5002C31.8502 6.49524 30.8752 7.14524 30.8752 7.79524L29.5752 16.5702C27.6252 17.2202 26.0002 18.5202 24.0502 19.4952L16.2502 16.2452C15.2752 16.2452 14.6252 16.2452 13.9752 17.2202L7.47516 28.5952C7.15016 29.2452 7.47516 29.8952 8.12516 30.5452L14.9502 35.7452L14.6252 38.9952L14.9502 42.2452L8.12516 47.7702C7.47516 48.4202 7.47516 49.0702 7.80016 49.7202L14.3002 61.0952C14.6252 61.7452 15.2752 61.7452 16.2502 61.7452L24.3752 58.4952C26.0002 59.7952 27.9502 60.7702 29.9002 61.7452L31.2002 70.5202C31.2002 71.1702 31.8502 71.8202 32.8252 71.8202H40.9502C39.3252 69.5452 38.6752 67.2702 38.0252 64.9952ZM52.0002 39.9702V38.9952C52.0002 31.8452 46.1502 25.9952 39.0002 25.9952C31.8502 25.9952 26.0002 31.8452 26.0002 38.9952C26.0002 46.1452 31.8502 51.9952 39.0002 51.9952C41.2752 46.4702 46.1502 41.9202 52.0002 39.9702ZM32.5002 38.9952C32.5002 35.4202 35.4252 32.4952 39.0002 32.4952C42.5752 32.4952 45.5002 35.4202 45.5002 38.9952C45.5002 42.5702 42.5752 45.4952 39.0002 45.4952C35.4252 45.4952 32.5002 42.5702 32.5002 38.9952Z" fill="#1E293B"/>
</svg>
