<svg width="18" height="18" viewBox="0 0 18 18" fill="none" xmlns="http://www.w3.org/2000/svg">
<path d="M7.5 15.7501H10.5C10.5 16.5751 9.825 17.2501 9 17.2501C8.175 17.2501 7.5 16.5751 7.5 15.7501ZM15.75 14.2501V15.0001H2.25V14.2501L3.75 12.7501V8.25006C3.75 5.92506 5.25 3.90006 7.5 3.22506V3.00006C7.5 2.17506 8.175 1.50006 9 1.50006C9.825 1.50006 10.5 2.17506 10.5 3.00006V3.22506C12.75 3.90006 14.25 5.92506 14.25 8.25006V12.7501L15.75 14.2501ZM12.75 8.25006C12.75 6.15006 11.1 4.50006 9 4.50006C6.9 4.50006 5.25 6.15006 5.25 8.25006V13.5001H12.75V8.25006Z" fill="white"/>
</svg>
