<svg width="18" height="18" viewBox="0 0 18 18" fill="none" xmlns="http://www.w3.org/2000/svg">
<path d="M9.00012 5.99921C9.79577 5.99921 10.5588 6.31528 11.1214 6.87789C11.6841 7.44049 12.0001 8.20356 12.0001 8.99921C12.0001 9.79486 11.6841 10.5579 11.1214 11.1205C10.5588 11.6831 9.79577 11.9992 9.00012 11.9992C8.20447 11.9992 7.44141 11.6831 6.8788 11.1205C6.31619 10.5579 6.00012 9.79486 6.00012 8.99921C6.00012 8.20356 6.31619 7.44049 6.8788 6.87789C7.44141 6.31528 8.20447 5.99921 9.00012 5.99921ZM9.00012 7.49921C8.6023 7.49921 8.22077 7.65724 7.93946 7.93855C7.65816 8.21985 7.50012 8.60138 7.50012 8.99921C7.50012 9.39703 7.65816 9.77856 7.93946 10.0599C8.22077 10.3412 8.6023 10.4992 9.00012 10.4992C9.39795 10.4992 9.77948 10.3412 10.0608 10.0599C10.3421 9.77856 10.5001 9.39703 10.5001 8.99921C10.5001 8.60138 10.3421 8.21985 10.0608 7.93855C9.77948 7.65724 9.39795 7.49921 9.00012 7.49921ZM7.50012 16.4992C7.31262 16.4992 7.15512 16.3642 7.12512 16.1842L6.84762 14.1967C6.37512 14.0092 5.97012 13.7542 5.58012 13.4542L3.71262 14.2117C3.54762 14.2717 3.34512 14.2117 3.25512 14.0467L1.75512 11.4517C1.65762 11.2867 1.70262 11.0842 1.84512 10.9717L3.42762 9.72671L3.37512 8.99921L3.42762 8.24921L1.84512 7.02671C1.70262 6.91421 1.65762 6.71171 1.75512 6.54671L3.25512 3.95171C3.34512 3.78671 3.54762 3.71921 3.71262 3.78671L5.58012 4.53671C5.97012 4.24421 6.37512 3.98921 6.84762 3.80171L7.12512 1.81421C7.15512 1.63421 7.31262 1.49921 7.50012 1.49921H10.5001C10.6876 1.49921 10.8451 1.63421 10.8751 1.81421L11.1526 3.80171C11.6251 3.98921 12.0301 4.24421 12.4201 4.53671L14.2876 3.78671C14.4526 3.71921 14.6551 3.78671 14.7451 3.95171L16.2451 6.54671C16.3426 6.71171 16.2976 6.91421 16.1551 7.02671L14.5726 8.24921L14.6251 8.99921L14.5726 9.74921L16.1551 10.9717C16.2976 11.0842 16.3426 11.2867 16.2451 11.4517L14.7451 14.0467C14.6551 14.2117 14.4526 14.2792 14.2876 14.2117L12.4201 13.4617C12.0301 13.7542 11.6251 14.0092 11.1526 14.1967L10.8751 16.1842C10.8451 16.3642 10.6876 16.4992 10.5001 16.4992H7.50012ZM8.43762 2.99921L8.16012 4.95671C7.26012 5.14421 6.46512 5.62421 5.88762 6.29171L4.08012 5.51171L3.51762 6.48671L5.10012 7.64921C4.80012 8.52671 4.80012 9.47921 5.10012 10.3492L3.51012 11.5192L4.07262 12.4942L5.89512 11.7142C6.47262 12.3742 7.26012 12.8542 8.15262 13.0342L8.43012 14.9992H9.57012L9.84762 13.0417C10.7401 12.8542 11.5276 12.3742 12.1051 11.7142L13.9276 12.4942L14.4901 11.5192L12.9001 10.3567C13.2001 9.47921 13.2001 8.52671 12.9001 7.64921L14.4826 6.48671L13.9201 5.51171L12.1126 6.29171C11.5351 5.62421 10.7401 5.14421 9.84012 4.96421L9.56262 2.99921H8.43762Z" fill="white"/>
</svg>
