<svg width="78" height="78" viewBox="0 0 78 78" fill="none" xmlns="http://www.w3.org/2000/svg">
<path d="M58.501 60.131C61.1985 60.131 63.376 57.9535 63.376 55.256C63.376 52.5585 61.1985 50.381 58.501 50.381C55.8035 50.381 53.626 52.5585 53.626 55.256C53.626 57.9535 55.8035 60.131 58.501 60.131ZM63.376 30.881H55.251V39.006H69.746L63.376 30.881ZM19.501 60.131C22.1985 60.131 24.376 57.9535 24.376 55.256C24.376 52.5585 22.1985 50.381 19.501 50.381C16.8035 50.381 14.626 52.5585 14.626 55.256C14.626 57.9535 16.8035 60.131 19.501 60.131ZM65.001 26.006L74.751 39.006V55.256H68.251C68.251 60.651 63.896 65.006 58.501 65.006C53.106 65.006 48.751 60.651 48.751 55.256H29.251C29.251 60.651 24.896 65.006 19.501 65.006C14.106 65.006 9.75098 60.651 9.75098 55.256H3.25098V19.506C3.25098 15.8985 6.14348 13.006 9.75098 13.006H55.251V26.006H65.001ZM9.75098 19.506V48.756H12.221C14.0085 46.7735 16.6085 45.506 19.501 45.506C22.3935 45.506 24.9935 46.7735 26.781 48.756H48.751V19.506H9.75098ZM32.501 22.756L43.876 34.131L32.501 45.506V37.381H16.251V30.881H32.501V22.756Z" fill="#1E293B"/>
</svg>
