<svg width="24" height="24" viewBox="0 0 24 24" fill="none" xmlns="http://www.w3.org/2000/svg">
<path d="M4.99988 2.00098H18.9999C19.2651 2.00098 19.5194 2.10633 19.707 2.29387C19.8945 2.48141 19.9999 2.73576 19.9999 3.00098V13.001C19.9999 13.2662 19.8945 13.5205 19.707 13.7081C19.5194 13.8956 19.2651 14.001 18.9999 14.001H4.99988C4.73466 14.001 4.48031 13.8956 4.29277 13.7081C4.10523 13.5205 3.99988 13.2662 3.99988 13.001V3.00098C3.99988 2.73576 4.10523 2.48141 4.29277 2.29387C4.48031 2.10633 4.73466 2.00098 4.99988 2.00098ZM5.99988 4.00098V12.001H17.9999V4.00098H5.99988ZM19.9999 17.001C19.9999 17.2662 19.8945 17.5205 19.707 17.7081C19.5194 17.8956 19.2651 18.001 18.9999 18.001H4.99988C4.73466 18.001 4.48031 17.8956 4.29277 17.7081C4.10523 17.5205 3.99988 17.2662 3.99988 17.001V16.001H19.9999V17.001ZM19.9999 21.001C19.9999 21.2662 19.8945 21.5205 19.707 21.7081C19.5194 21.8956 19.2651 22.001 18.9999 22.001H4.99988C4.73466 22.001 4.48031 21.8956 4.29277 21.7081C4.10523 21.5205 3.99988 21.2662 3.99988 21.001V20.001H19.9999V21.001Z" fill="#495057"/>
</svg>
