<svg width="66" height="66" viewBox="0 0 66 66" fill="none" xmlns="http://www.w3.org/2000/svg">
<g filter="url(#filter0_d_3566_28052)">
<circle cx="33" cy="32" r="29" fill="#FF5C7C"/>
<path d="M46.3337 33.335H35.667V30.6683H46.3337V33.335ZM46.3337 25.335H35.667V28.0016H46.3337V25.335ZM35.667 38.6683H46.3337V36.0016H35.667V38.6683ZM33.0003 28.0016V36.0016C33.0003 37.4683 31.8003 38.6683 30.3337 38.6683H22.3337C20.867 38.6683 19.667 37.4683 19.667 36.0016V28.0016C19.667 26.535 20.867 25.335 22.3337 25.335H30.3337C31.8003 25.335 33.0003 26.535 33.0003 28.0016ZM31.0003 36.0016L28.067 32.0016L25.667 35.0683L24.067 33.0683L21.667 36.0016H31.0003Z" fill="white"/>
</g>
<defs>
<filter id="filter0_d_3566_28052" x="0" y="0" width="66" height="66" filterUnits="userSpaceOnUse" color-interpolation-filters="sRGB">
<feFlood flood-opacity="0" result="BackgroundImageFix"/>
<feColorMatrix in="SourceAlpha" type="matrix" values="0 0 0 0 0 0 0 0 0 0 0 0 0 0 0 0 0 0 127 0" result="hardAlpha"/>
<feOffset dy="1"/>
<feGaussianBlur stdDeviation="2"/>
<feComposite in2="hardAlpha" operator="out"/>
<feColorMatrix type="matrix" values="0 0 0 0 0 0 0 0 0 0 0 0 0 0 0 0 0 0 0.15 0"/>
<feBlend mode="normal" in2="BackgroundImageFix" result="effect1_dropShadow_3566_28052"/>
<feBlend mode="normal" in="SourceGraphic" in2="effect1_dropShadow_3566_28052" result="shape"/>
</filter>
</defs>
</svg>
