<svg width="78" height="78" viewBox="0 0 78 78" fill="none" xmlns="http://www.w3.org/2000/svg">
<path d="M45.499 6.49524C38.6034 6.49524 31.9902 9.23452 27.1142 14.1105C22.2383 18.9864 19.499 25.5996 19.499 32.4952C19.499 39.3909 22.2383 46.0041 27.1142 50.88C31.9902 55.756 38.6034 58.4952 45.499 58.4952C52.3947 58.4952 59.0079 55.756 63.8838 50.88C68.7597 46.0041 71.499 39.3909 71.499 32.4952H64.999C64.999 43.2852 56.289 51.9952 45.499 51.9952C40.3273 51.9952 35.3674 49.9408 31.7104 46.2838C28.0535 42.6269 25.999 37.667 25.999 32.4952C25.999 27.3235 28.0535 22.3636 31.7104 18.7067C35.3674 15.0497 40.3273 12.9952 45.499 12.9952C46.8965 12.9952 48.294 13.1577 49.6265 13.4502L54.859 8.25024C51.869 7.08024 48.749 6.49524 45.499 6.49524ZM66.9165 11.6302L45.499 33.0477L37.764 25.3127L33.1815 29.9277L45.499 42.2452L71.499 16.2452L66.9165 11.6302ZM16.0215 18.9102C10.009 23.8502 6.49902 31.2277 6.49902 38.9952C6.49902 45.8909 9.2383 52.5041 14.1142 57.38C18.9902 62.256 25.6034 64.9952 32.499 64.9952C34.579 64.9952 36.6265 64.7352 38.609 64.2477C32.889 62.9802 27.624 60.1202 23.3015 56.1877C16.964 52.8077 12.999 46.1777 12.999 38.9952C12.999 38.0202 13.0965 37.0777 13.2265 36.1027C13.0965 34.9002 12.999 33.6977 12.999 32.4952C12.999 27.8152 14.039 23.1677 16.0215 18.9102Z" fill="#1E293B"/>
</svg>
