<svg width="20" height="20" viewBox="0 0 20 20" fill="none" xmlns="http://www.w3.org/2000/svg">
<path d="M10.0003 1.66699C8.90598 1.66699 7.82234 1.88254 6.8113 2.30133C5.80025 2.72012 4.88159 3.33395 4.10777 4.10777C2.54497 5.67057 1.66699 7.79019 1.66699 10.0003C1.66699 12.2105 2.54497 14.3301 4.10777 15.8929C4.88159 16.6667 5.80025 17.2805 6.8113 17.6993C7.82234 18.1181 8.90598 18.3337 10.0003 18.3337C12.2105 18.3337 14.3301 17.4557 15.8929 15.8929C17.4557 14.3301 18.3337 12.2105 18.3337 10.0003C18.3337 8.90598 18.1181 7.82234 17.6993 6.8113C17.2805 5.80025 16.6667 4.88159 15.8929 4.10777C15.1191 3.33395 14.2004 2.72012 13.1894 2.30133C12.1783 1.88254 11.0947 1.66699 10.0003 1.66699V1.66699ZM5.89199 15.2337C6.25033 14.4837 8.43366 13.7503 10.0003 13.7503C11.567 13.7503 13.7503 14.4837 14.1087 15.2337C12.9753 16.1337 11.5503 16.667 10.0003 16.667C8.45033 16.667 7.02533 16.1337 5.89199 15.2337ZM15.3003 14.0253C14.1087 12.5753 11.217 12.0837 10.0003 12.0837C8.78366 12.0837 5.89199 12.5753 4.70033 14.0253C3.85033 12.917 3.33366 11.517 3.33366 10.0003C3.33366 6.32533 6.32533 3.33366 10.0003 3.33366C13.6753 3.33366 16.667 6.32533 16.667 10.0003C16.667 11.517 16.1503 12.917 15.3003 14.0253ZM10.0003 5.00033C8.38366 5.00033 7.08366 6.30033 7.08366 7.91699C7.08366 9.53366 8.38366 10.8337 10.0003 10.8337C11.617 10.8337 12.917 9.53366 12.917 7.91699C12.917 6.30033 11.617 5.00033 10.0003 5.00033ZM10.0003 9.16699C9.6688 9.16699 9.35086 9.0353 9.11644 8.80088C8.88202 8.56646 8.75033 8.24851 8.75033 7.91699C8.75033 7.58547 8.88202 7.26753 9.11644 7.03311C9.35086 6.79869 9.6688 6.66699 10.0003 6.66699C10.3318 6.66699 10.6498 6.79869 10.8842 7.03311C11.1186 7.26753 11.2503 7.58547 11.2503 7.91699C11.2503 8.24851 11.1186 8.56646 10.8842 8.80088C10.6498 9.0353 10.3318 9.16699 10.0003 9.16699Z" fill="#475569"/>
</svg>
