<svg width="16" height="16" viewBox="0 0 16 16" fill="none" xmlns="http://www.w3.org/2000/svg">
<path d="M7.99992 13.3325C5.05992 13.3325 2.66659 10.9392 2.66659 7.99919C2.66659 5.05919 5.05992 2.66585 7.99992 2.66585C10.9399 2.66585 13.3333 5.05919 13.3333 7.99919C13.3333 10.9392 10.9399 13.3325 7.99992 13.3325ZM7.99992 1.33252C7.12444 1.33252 6.25753 1.50496 5.4487 1.83999C4.63986 2.17502 3.90493 2.66608 3.28587 3.28514C2.03563 4.53538 1.33325 6.23108 1.33325 7.99919C1.33325 9.7673 2.03563 11.463 3.28587 12.7132C3.90493 13.3323 4.63986 13.8234 5.4487 14.1584C6.25753 14.4934 7.12444 14.6659 7.99992 14.6659C9.76803 14.6659 11.4637 13.9635 12.714 12.7132C13.9642 11.463 14.6666 9.7673 14.6666 7.99919C14.6666 7.12371 14.4941 6.2568 14.1591 5.44796C13.8241 4.63913 13.333 3.9042 12.714 3.28514C12.0949 2.66608 11.36 2.17502 10.5511 1.83999C9.7423 1.50496 8.8754 1.33252 7.99992 1.33252ZM8.66658 4.66585H7.33325V7.33252H4.66658V8.66585H7.33325V11.3325H8.66658V8.66585H11.3333V7.33252H8.66658V4.66585Z" fill="#475569"/>
</svg>
