<svg width="24" height="24" viewBox="0 0 24 24" fill="none" xmlns="http://www.w3.org/2000/svg">
<path d="M6 2.00116C5.46957 2.00116 4.96086 2.21187 4.58579 2.58695C4.21071 2.96202 4 3.47073 4 4.00116V20.0012C4 20.5316 4.21071 21.0403 4.58579 21.4154C4.96086 21.7904 5.46957 22.0012 6 22.0012H18C18.5304 22.0012 19.0391 21.7904 19.4142 21.4154C19.7893 21.0403 20 20.5316 20 20.0012V8.00116L14 2.00116H6ZM6 4.00116H13V9.00116H18V20.0012H6V4.00116ZM8 12.0012V14.0012H16V12.0012H8ZM8 16.0012V18.0012H13V16.0012H8Z" fill="white"/>
</svg>
