<svg width="24" height="24" viewBox="0 0 24 24" fill="none" xmlns="http://www.w3.org/2000/svg">
<path d="M6.00012 2.00098C5.46969 2.00098 4.96098 2.21169 4.58591 2.58676C4.21084 2.96184 4.00012 3.47054 4.00012 4.00098V20.001C4.00012 20.5314 4.21084 21.0401 4.58591 21.4152C4.96098 21.7903 5.46969 22.001 6.00012 22.001H18.0001C18.5306 22.001 19.0393 21.7903 19.4143 21.4152C19.7894 21.0401 20.0001 20.5314 20.0001 20.001V8.00098L14.0001 2.00098H6.00012ZM6.00012 4.00098H13.0001V9.00098H18.0001V20.001H6.00012V4.00098ZM8.00012 12.001V14.001H16.0001V12.001H8.00012ZM8.00012 16.001V18.001H13.0001V16.001H8.00012Z" fill="#495057"/>
</svg>
