<svg width="48" height="48" viewBox="0 0 48 48" fill="none" xmlns="http://www.w3.org/2000/svg">
<g filter="url(#filter0_d_3566_28139)">
<circle cx="24" cy="23" r="20" fill="white"/>
<path d="M24.0343 30.3559C19.9791 30.3559 16.6779 27.0548 16.6779 22.9996C16.6779 18.9444 19.9791 15.6433 24.0343 15.6433C28.0894 15.6433 31.3906 18.9444 31.3906 22.9996C31.3906 27.0548 28.0894 30.3559 24.0343 30.3559ZM24.0343 13.8042C18.9492 13.8042 14.8389 17.9145 14.8389 22.9996C14.8389 28.0847 18.9492 32.195 24.0343 32.195C29.1193 32.195 33.2297 28.0847 33.2297 22.9996C33.2297 17.9145 29.1193 13.8042 24.0343 13.8042ZM26.4159 19.3214L24.0343 21.7031L21.6527 19.3214L20.3561 20.618L22.7377 22.9996L20.3561 25.3812L21.6527 26.6778L24.0343 24.2962L26.4159 26.6778L27.7124 25.3812L25.3308 22.9996L27.7124 20.618L26.4159 19.3214Z" fill="#1E293B"/>
</g>
<defs>
<filter id="filter0_d_3566_28139" x="0" y="0" width="48" height="48" filterUnits="userSpaceOnUse" color-interpolation-filters="sRGB">
<feFlood flood-opacity="0" result="BackgroundImageFix"/>
<feColorMatrix in="SourceAlpha" type="matrix" values="0 0 0 0 0 0 0 0 0 0 0 0 0 0 0 0 0 0 127 0" result="hardAlpha"/>
<feOffset dy="1"/>
<feGaussianBlur stdDeviation="2"/>
<feComposite in2="hardAlpha" operator="out"/>
<feColorMatrix type="matrix" values="0 0 0 0 0 0 0 0 0 0 0 0 0 0 0 0 0 0 0.15 0"/>
<feBlend mode="normal" in2="BackgroundImageFix" result="effect1_dropShadow_3566_28139"/>
<feBlend mode="normal" in="SourceGraphic" in2="effect1_dropShadow_3566_28139" result="shape"/>
</filter>
</defs>
</svg>
