<svg width="66" height="66" viewBox="0 0 66 66" fill="none" xmlns="http://www.w3.org/2000/svg">
<g filter="url(#filter0_d_3566_28046)">
<circle cx="33" cy="32" r="29" fill="#FF5C7C"/>
<path d="M23.6663 18.6682H42.333C42.6866 18.6682 43.0258 18.8087 43.2758 19.0587C43.5259 19.3088 43.6663 19.6479 43.6663 20.0015V33.3349C43.6663 33.6885 43.5259 34.0276 43.2758 34.2777C43.0258 34.5277 42.6866 34.6682 42.333 34.6682H23.6663C23.3127 34.6682 22.9736 34.5277 22.7235 34.2777C22.4735 34.0276 22.333 33.6885 22.333 33.3349V20.0015C22.333 19.6479 22.4735 19.3088 22.7235 19.0587C22.9736 18.8087 23.3127 18.6682 23.6663 18.6682ZM24.9997 21.3349V32.0015H40.9997V21.3349H24.9997ZM43.6663 38.6682C43.6663 39.0218 43.5259 39.361 43.2758 39.611C43.0258 39.8611 42.6866 40.0015 42.333 40.0015H23.6663C23.3127 40.0015 22.9736 39.8611 22.7235 39.611C22.4735 39.361 22.333 39.0218 22.333 38.6682V37.3349H43.6663V38.6682ZM43.6663 44.0015C43.6663 44.3552 43.5259 44.6943 43.2758 44.9444C43.0258 45.1944 42.6866 45.3349 42.333 45.3349H23.6663C23.3127 45.3349 22.9736 45.1944 22.7235 44.9444C22.4735 44.6943 22.333 44.3552 22.333 44.0015V42.6682H43.6663V44.0015Z" fill="white"/>
</g>
<defs>
<filter id="filter0_d_3566_28046" x="0" y="0" width="66" height="66" filterUnits="userSpaceOnUse" color-interpolation-filters="sRGB">
<feFlood flood-opacity="0" result="BackgroundImageFix"/>
<feColorMatrix in="SourceAlpha" type="matrix" values="0 0 0 0 0 0 0 0 0 0 0 0 0 0 0 0 0 0 127 0" result="hardAlpha"/>
<feOffset dy="1"/>
<feGaussianBlur stdDeviation="2"/>
<feComposite in2="hardAlpha" operator="out"/>
<feColorMatrix type="matrix" values="0 0 0 0 0 0 0 0 0 0 0 0 0 0 0 0 0 0 0.15 0"/>
<feBlend mode="normal" in2="BackgroundImageFix" result="effect1_dropShadow_3566_28046"/>
<feBlend mode="normal" in="SourceGraphic" in2="effect1_dropShadow_3566_28046" result="shape"/>
</filter>
</defs>
</svg>
