<svg width="24" height="24" viewBox="0 0 24 24" fill="none" xmlns="http://www.w3.org/2000/svg">
<path d="M22.0001 13.0012H14.0001V11.0012H22.0001V13.0012ZM22.0001 7.00122H14.0001V9.00122H22.0001V7.00122ZM14.0001 17.0012H22.0001V15.0012H14.0001V17.0012ZM12.0001 9.00122V15.0012C12.0001 16.1012 11.1001 17.0012 10.0001 17.0012H4.00012C2.90012 17.0012 2.00012 16.1012 2.00012 15.0012V9.00122C2.00012 7.90122 2.90012 7.00122 4.00012 7.00122H10.0001C11.1001 7.00122 12.0001 7.90122 12.0001 9.00122ZM10.5001 15.0012L8.30012 12.0012L6.50012 14.3012L5.30012 12.8012L3.50012 15.0012H10.5001Z" fill="#495057"/>
</svg>
