<svg width="18" height="18" viewBox="0 0 18 18" fill="none" xmlns="http://www.w3.org/2000/svg">
<path d="M7.125 2.24994C8.41793 2.24994 9.65791 2.76355 10.5721 3.67779C11.4864 4.59203 12 5.83201 12 7.12494C12 8.33244 11.5575 9.44244 10.83 10.2974L11.0325 10.4999H11.625L15.375 14.2499L14.25 15.3749L10.5 11.6249V11.0324L10.2975 10.8299C9.4425 11.5574 8.3325 11.9999 7.125 11.9999C5.83207 11.9999 4.59209 11.4863 3.67785 10.5721C2.76361 9.65784 2.25 8.41787 2.25 7.12494C2.25 5.83201 2.76361 4.59203 3.67785 3.67779C4.59209 2.76355 5.83207 2.24994 7.125 2.24994ZM7.125 3.74994C5.25 3.74994 3.75 5.24994 3.75 7.12494C3.75 8.99994 5.25 10.4999 7.125 10.4999C9 10.4999 10.5 8.99994 10.5 7.12494C10.5 5.24994 9 3.74994 7.125 3.74994Z" fill="#475569"/>
</svg>
