<svg width="66" height="66" viewBox="0 0 66 66" fill="none" xmlns="http://www.w3.org/2000/svg">
<g filter="url(#filter0_d_3566_28153)">
<circle cx="33" cy="32" r="29" fill="#FF5C7C"/>
<path d="M23.6663 27.9997V43.9997H18.333V27.9997H23.6663ZM28.9997 43.9997C28.2924 43.9997 27.6142 43.7187 27.1141 43.2186C26.614 42.7185 26.333 42.0403 26.333 41.333V27.9997C26.333 27.2663 26.6263 26.5997 27.1197 26.1197L35.893 17.333L37.3063 18.7463C37.6663 19.1063 37.893 19.5997 37.893 20.1463L37.853 20.573L36.5863 26.6663H44.9997C46.4797 26.6663 47.6663 27.8663 47.6663 29.333V31.9997C47.6663 32.3463 47.5997 32.6663 47.4797 32.973L43.453 42.373C43.053 43.333 42.1063 43.9997 40.9997 43.9997H28.9997ZM28.9997 41.333H41.0397L44.9997 31.9997V29.333H33.2797L34.7863 22.2397L28.9997 28.0397V41.333Z" fill="white"/>
</g>
<defs>
<filter id="filter0_d_3566_28153" x="0" y="0" width="66" height="66" filterUnits="userSpaceOnUse" color-interpolation-filters="sRGB">
<feFlood flood-opacity="0" result="BackgroundImageFix"/>
<feColorMatrix in="SourceAlpha" type="matrix" values="0 0 0 0 0 0 0 0 0 0 0 0 0 0 0 0 0 0 127 0" result="hardAlpha"/>
<feOffset dy="1"/>
<feGaussianBlur stdDeviation="2"/>
<feComposite in2="hardAlpha" operator="out"/>
<feColorMatrix type="matrix" values="0 0 0 0 0 0 0 0 0 0 0 0 0 0 0 0 0 0 0.15 0"/>
<feBlend mode="normal" in2="BackgroundImageFix" result="effect1_dropShadow_3566_28153"/>
<feBlend mode="normal" in="SourceGraphic" in2="effect1_dropShadow_3566_28153" result="shape"/>
</filter>
</defs>
</svg>
