<svg width="20" height="20" viewBox="0 0 20 20" fill="none" xmlns="http://www.w3.org/2000/svg">
<path d="M13.6337 11.6665C13.7003 11.1165 13.7503 10.5665 13.7503 9.99984C13.7503 9.43317 13.7003 8.88317 13.6337 8.33317H16.4503C16.5837 8.8665 16.667 9.42484 16.667 9.99984C16.667 10.5748 16.5837 11.1332 16.4503 11.6665H13.6337ZM12.1587 16.2998C12.6587 15.3748 13.042 14.3748 13.3087 13.3332H15.767C14.967 14.7082 13.692 15.7748 12.1587 16.2998ZM11.9503 11.6665H8.05032C7.96699 11.1165 7.91699 10.5665 7.91699 9.99984C7.91699 9.43317 7.96699 8.87484 8.05032 8.33317H11.9503C12.0253 8.87484 12.0837 9.43317 12.0837 9.99984C12.0837 10.5665 12.0253 11.1165 11.9503 11.6665ZM10.0003 16.6332C9.30866 15.6332 8.75032 14.5248 8.40866 13.3332H11.592C11.2503 14.5248 10.692 15.6332 10.0003 16.6332ZM6.66699 6.6665H4.23366C5.02532 5.28317 6.30866 4.2165 7.83366 3.69984C7.33366 4.62484 6.95866 5.62484 6.66699 6.6665ZM4.23366 13.3332H6.66699C6.95866 14.3748 7.33366 15.3748 7.83366 16.2998C6.30866 15.7748 5.02532 14.7082 4.23366 13.3332ZM3.55033 11.6665C3.41699 11.1332 3.33366 10.5748 3.33366 9.99984C3.33366 9.42484 3.41699 8.8665 3.55033 8.33317H6.36699C6.30032 8.88317 6.25032 9.43317 6.25032 9.99984C6.25032 10.5665 6.30032 11.1165 6.36699 11.6665H3.55033ZM10.0003 3.35817C10.692 4.35817 11.2503 5.47484 11.592 6.6665H8.40866C8.75032 5.47484 9.30866 4.35817 10.0003 3.35817ZM15.767 6.6665H13.3087C13.042 5.62484 12.6587 4.62484 12.1587 3.69984C13.692 4.22484 14.967 5.28317 15.767 6.6665ZM10.0003 1.6665C5.39199 1.6665 1.66699 5.4165 1.66699 9.99984C1.66699 12.21 2.54497 14.3296 4.10777 15.8924C4.88159 16.6662 5.80025 17.28 6.8113 17.6988C7.82234 18.1176 8.90598 18.3332 10.0003 18.3332C12.2105 18.3332 14.3301 17.4552 15.8929 15.8924C17.4557 14.3296 18.3337 12.21 18.3337 9.99984C18.3337 8.90549 18.1181 7.82185 17.6993 6.81081C17.2805 5.79976 16.6667 4.8811 15.8929 4.10728C15.1191 3.33346 14.2004 2.71963 13.1894 2.30084C12.1783 1.88205 11.0947 1.6665 10.0003 1.6665V1.6665Z" fill="#475569"/>
</svg>
